<?xml version="1.0" encoding="UTF-8"?>
<svg width="100%" height="100%" viewBox="0 0 300 89" version="1.1" xmlns="http://www.w3.org/2000/svg" xmlns:xlink="http://www.w3.org/1999/xlink">
    <!-- Generator: Sketch 41 (35326) - http://www.bohemiancoding.com/sketch -->
    <title>punch</title>
    <desc>Created with Sketch.</desc>
    <defs></defs>
    <g id="Page-1" stroke="none" stroke-width="1" fill="none" fill-rule="evenodd">
        <g id="Group-2">
            <path d="M0.1640625,20.8320313 L21.0986328,20.8320313 C21.0986328,20.8320313 29.5131836,20.3710938 34.15625,22.465332 C38.7993164,24.5595703 43.7851562,28.5771484 43.7851562,38.230957 C43.7851562,48.3668715 38.5131836,52.7919922 32.8925781,55.5791016 C27.2719727,58.3662109 11.6298828,57.109375 11.6298828,57.109375 L11.6298828,88 L0.1640625,88 L0.1640625,20.8320313 Z M45.9248047,20.8901367 L57.8818359,20.8901367 L57.8818359,66.0336914 C57.8818359,66.0336914 57.8818359,78.5268555 75.6162109,78.5268555 C93.3505859,78.5268555 93.0078125,66.0336914 93.0078125,66.0336914 L93.0078125,20.8901367 L105.984375,20.8901367 C105.984375,20.8901367 105.678223,64.2695312 105.05957,68.5683594 C105.678223,64.2695312 105.075195,88.2270508 83.2416992,88.2270508 C61.4082031,88.2270508 92.7529297,88.2270508 69.3388672,88.2270508 C45.9248047,88.2270508 45.9248047,68.5683594 45.9248047,68.5683594 C45.5019531,63 45.9248047,20.8901367 45.9248047,20.8901367 Z M109.578613,88 L109.578613,17.0170898 L162.797363,64.4287109 L162.677734,3.58642578 L174.384277,12.9775391 L174.509277,88.203125 L121.127441,41.0205078 L121.127441,88.203125 L109.578613,88 Z M236.937223,38.5034388 L237.043064,27.1472651 C237.043064,27.1472651 224.016328,19.6593482 209.190774,21.2119043 C194.36522,22.7644603 177.164062,32.830746 177.164062,54.7058387 C177.164062,76.5809315 195.861078,88.2110304 211.445485,88.2110304 C227.029892,88.2110304 237.411567,82.2559695 237.411567,82.2559695 L237.250863,69.7524991 C237.250863,69.7524991 227.938283,77.7770094 212.302412,77.7770094 C196.666541,77.7770094 188.688629,63.6121634 189.257162,54.4774113 C189.825695,45.3426593 197.014166,31.2702161 212.095584,31.2702161 C227.177002,31.2702161 236.937223,38.5034388 236.937223,38.5034388 Z M240.066895,21.1108398 L240.066895,88 L252.944824,88 L252.944824,55.9829102 L286.759766,56.0117188 L286.759766,88 L299.941406,88 L299.941406,21.1103516 L286.369141,20.9916992 L286.307129,45.1831055 L252.76123,44.9433594 L252.891113,20.9707031 L240.066895,21.1108398 Z M12.6044922,30.237793 L12.6044922,47.9311523 C12.6044922,47.9311523 21.5942383,47.9960937 24.0292969,47.9311523 C26.4643555,47.8662109 31.277832,47.2021484 31.277832,39.625 C31.277832,32.0478516 27.2382812,30.237793 23.2578125,30.1308594 C19.2773437,30.0239258 12.6044922,30.237793 12.6044922,30.237793 Z" id="Path" fill="#E30000"></path>
            <g id="Group">
                <rect id="Rectangle" fill="#E30000" x="0" y="0" width="31" height="13"></rect>
                <rect id="Rectangle-Copy" fill="#FBC80E" x="31" y="0" width="78" height="13"></rect>
                <rect id="Rectangle-Copy-2" fill="#EBE80A" x="109" y="0" width="20" height="13"></rect>
                <rect id="Rectangle-Copy-3" fill="#FFFF00" x="129" y="0" width="31" height="13"></rect>
                <rect id="Rectangle-Copy-4" fill="#FFCF00" x="177" y="0" width="11" height="13"></rect>
                <rect id="Rectangle-Copy-5" fill="#FFFF00" x="188" y="0" width="11" height="13"></rect>
                <rect id="Rectangle-Copy-6" fill="#E0FF19" x="199" y="0" width="85" height="13"></rect>
                <rect id="Rectangle-Copy-7" fill="#94CF00" x="284" y="0" width="16" height="13"></rect>
            </g>
        </g>
    </g>
</svg>